<svg id="visual" viewBox="0 0 900 600" width="900" height="600" xmlns="http://www.w3.org/2000/svg" xmlns:xlink="http://www.w3.org/1999/xlink" version="1.1"><rect x="0" y="0" width="900" height="600" fill="#140021"></rect><path d="M548 600L463 600L463 514L561 514L561 429L546 429L546 343L436 343L436 257L472 257L472 171L501 171L501 86L518 86L518 0L900 0L900 86L900 86L900 171L900 171L900 257L900 257L900 343L900 343L900 429L900 429L900 514L900 514L900 600L900 600Z" fill="#9900ff"></path><path d="M537 600L522 600L522 514L656 514L656 429L575 429L575 343L639 343L639 257L527 257L527 171L695 171L695 86L623 86L623 0L900 0L900 86L900 86L900 171L900 171L900 257L900 257L900 343L900 343L900 429L900 429L900 514L900 514L900 600L900 600Z" fill="#7700c6"></path><path d="M775 600L691 600L691 514L736 514L736 429L729 429L729 343L822 343L822 257L666 257L666 171L673 171L673 86L679 86L679 0L900 0L900 86L900 86L900 171L900 171L900 257L900 257L900 343L900 343L900 429L900 429L900 514L900 514L900 600L900 600Z" fill="#560090"></path></svg>