<svg id="visual" viewBox="0 0 900 600" width="900" height="600" xmlns="http://www.w3.org/2000/svg" xmlns:xlink="http://www.w3.org/1999/xlink" version="1.1"><rect x="0" y="0" width="900" height="600" fill="#F0E2D2"></rect><path d="M0 370L21.5 372.8C43 375.7 86 381.3 128.8 378C171.7 374.7 214.3 362.3 257.2 362.2C300 362 343 374 385.8 374.8C428.7 375.7 471.3 365.3 514.2 370.5C557 375.7 600 396.3 642.8 404.5C685.7 412.7 728.3 408.3 771.2 408.5C814 408.7 857 413.3 878.5 415.7L900 418L900 601L878.5 601C857 601 814 601 771.2 601C728.3 601 685.7 601 642.8 601C600 601 557 601 514.2 601C471.3 601 428.7 601 385.8 601C343 601 300 601 257.2 601C214.3 601 171.7 601 128.8 601C86 601 43 601 21.5 601L0 601Z" fill="#d18266"></path><path d="M0 451L21.5 446.5C43 442 86 433 128.8 431.8C171.7 430.7 214.3 437.3 257.2 439.7C300 442 343 440 385.8 431.2C428.7 422.3 471.3 406.7 514.2 408.8C557 411 600 431 642.8 440.5C685.7 450 728.3 449 771.2 446.5C814 444 857 440 878.5 438L900 436L900 601L878.5 601C857 601 814 601 771.2 601C728.3 601 685.7 601 642.8 601C600 601 557 601 514.2 601C471.3 601 428.7 601 385.8 601C343 601 300 601 257.2 601C214.3 601 171.7 601 128.8 601C86 601 43 601 21.5 601L0 601Z" fill="#bda670"></path><path d="M0 461L21.5 457.3C43 453.7 86 446.3 128.8 450.8C171.7 455.3 214.3 471.7 257.2 470.8C300 470 343 452 385.8 452C428.7 452 471.3 470 514.2 475.5C557 481 600 474 642.8 475.3C685.7 476.7 728.3 486.3 771.2 490C814 493.7 857 491.3 878.5 490.2L900 489L900 601L878.5 601C857 601 814 601 771.2 601C728.3 601 685.7 601 642.8 601C600 601 557 601 514.2 601C471.3 601 428.7 601 385.8 601C343 601 300 601 257.2 601C214.3 601 171.7 601 128.8 601C86 601 43 601 21.5 601L0 601Z" fill="#abc19b"></path><path d="M0 509L21.5 511.2C43 513.3 86 517.7 128.8 513.3C171.7 509 214.3 496 257.2 490.7C300 485.3 343 487.7 385.8 490.5C428.7 493.3 471.3 496.7 514.2 504.2C557 511.7 600 523.3 642.8 522.3C685.7 521.3 728.3 507.7 771.2 504.2C814 500.7 857 507.3 878.5 510.7L900 514L900 601L878.5 601C857 601 814 601 771.2 601C728.3 601 685.7 601 642.8 601C600 601 557 601 514.2 601C471.3 601 428.7 601 385.8 601C343 601 300 601 257.2 601C214.3 601 171.7 601 128.8 601C86 601 43 601 21.5 601L0 601Z" fill="#b2d5ca"></path><path d="M0 545L21.5 545.7C43 546.3 86 547.7 128.8 547C171.7 546.3 214.3 543.7 257.2 546.3C300 549 343 557 385.8 561.8C428.7 566.7 471.3 568.3 514.2 569.8C557 571.3 600 572.7 642.8 573.2C685.7 573.7 728.3 573.3 771.2 567.3C814 561.3 857 549.7 878.5 543.8L900 538L900 601L878.5 601C857 601 814 601 771.2 601C728.3 601 685.7 601 642.8 601C600 601 557 601 514.2 601C471.3 601 428.7 601 385.8 601C343 601 300 601 257.2 601C214.3 601 171.7 601 128.8 601C86 601 43 601 21.5 601L0 601Z" fill="#d5e3e6"></path></svg>