<svg id="visual" viewBox="0 0 960 540" width="960" height="540" xmlns="http://www.w3.org/2000/svg" xmlns:xlink="http://www.w3.org/1999/xlink" version="1.1"><rect width="960" height="540" fill="#051622"></rect><g><g transform="translate(302 231)"><path d="M0 -92.7L88.1 -28.6L54.5 75L-54.5 75L-88.1 -28.6Z" fill="none" stroke="#DEB992" stroke-width="2"></path></g><g transform="translate(901 38)"><path d="M0 -46L43.7 -14.2L27 37.2L-27 37.2L-43.7 -14.2Z" stroke="#DEB992" fill="none" stroke-width="2"></path></g><g transform="translate(121 129)"><path d="M0 -71L67.5 -21.9L41.7 57.4L-41.7 57.4L-67.5 -21.9Z" stroke="#DEB992" fill="none" stroke-width="2"></path></g><g transform="translate(78 462)"><path d="M0 -60L57.1 -18.5L35.3 48.5L-35.3 48.5L-57.1 -18.5Z" stroke="#DEB992" fill="none" stroke-width="2"></path></g><g transform="translate(757 217)"><path d="M0 -85L80.8 -26.3L50 68.8L-50 68.8L-80.8 -26.3Z" stroke="#DEB992" fill="none" stroke-width="2"></path></g><g transform="translate(391 36)"><path d="M0 -73L69.4 -22.6L42.9 59.1L-42.9 59.1L-69.4 -22.6Z" stroke="#DEB992" fill="none" stroke-width="2"></path></g><g transform="translate(361 535)"><path d="M0 -76L72.3 -23.5L44.7 61.5L-44.7 61.5L-72.3 -23.5Z" stroke="#DEB992" fill="none" stroke-width="2"></path></g></g></svg>